<svg id="Capa_1" enable-background="new 0 0 512 512" height="512" viewBox="0 0 512 512" width="512" xmlns="http://www.w3.org/2000/svg"><g><path d="m180 165h-75-75l-30 15v271l30 15h75 75l30-15v-271z" fill="#ffbe40"/><path d="m210 451v-271l-30-15h-75v301h75z" fill="#ff9f40"/><path d="m231.211 0h-81.211l-30 30h98.789l25.606 25.605 21.21-21.21z" fill="#cfd7e6"/><path d="m105 0h-45v75h45 45v-75z" fill="#e1e6f0"/><path d="m105 0h45v75h-45z" fill="#cfd7e6"/><path d="m105 60h-60v75h60 60v-75z" fill="#f3f5f9"/><path d="m105 60h60v75h-60z" fill="#e1e6f0"/><path d="m376 90h-76v105l31 15h45 45l31-15v-105z" fill="#3d3d66"/><path d="m452 195v-105h-76v120h45z" fill="#2e2e4d"/><path d="m376 195h-76v76h76 76v-76z" fill="#4d4d80"/><path d="m376 195h76v76h-76z" fill="#3d3d66"/><path d="m275.728 240c-25.787 52.103-35.728 100.192-35.728 136 0 35.843 9.965 83.945 35.728 136h100.272v-272z" fill="#ffdf40"/><path d="m512 376c0-35.843-9.965-83.947-35.728-136h-100.272v272h100.272c25.787-52.103 35.728-100.192 35.728-136z" fill="#a0e65c"/><path d="m512 376c0-35.843-9.965-83.947-35.728-136h-100.272v272h100.272c25.787-52.103 35.728-100.192 35.728-136z" fill="#ffbe40"/><path d="m388.349 337.475-12.349-17.871-12.349 17.871c-9.814 14.223-32.651 49.35-32.651 68.525 0 24.814 20.186 45 45 45s45-20.186 45-45c0-19.175-22.837-54.302-32.651-68.525z" fill="#4d4d80"/><path d="m421 406c0-19.175-22.837-54.302-32.651-68.525l-12.349-17.871v131.396c24.814 0 45-20.186 45-45z" fill="#3d3d66"/><path d="m117.349 277.475-12.349-17.871-12.349 17.871c-9.814 14.223-32.651 49.35-32.651 68.525 0 24.814 20.186 45 45 45s45-20.186 45-45c0-19.175-22.837-54.302-32.651-68.525z" fill="#4d4d80"/><path d="m150 346c0-19.175-22.837-54.302-32.651-68.525l-12.349-17.871v131.396c24.814 0 45-20.186 45-45z" fill="#3d3d66"/><path d="m0 451v61h105 105v-61h-105z" fill="#ffdf40"/><path d="m105 120h-105v60h105 105v-60z" fill="#ffdf40"/><g fill="#ffbe40"><path d="m105 120h105v60h-105z"/><path d="m105 451h105v61h-105z"/></g></g></svg>