<svg id="Layer_1" enable-background="new 0 0 511.789 511.789" height="512" viewBox="0 0 511.789 511.789" width="512" xmlns="http://www.w3.org/2000/svg"><g><path d="m449.483 157.414c-10.777-43.111-49.341-73.22-93.778-73.22h-42.281c-22.175-19.992-50.572-30.929-80.65-30.929h-43.427v30.929h-33.261c-44.438 0-83 30.109-93.779 73.22l-4.66 18.638h396.497z" fill="#edf5ff"/><path d="m449.483 157.414c-10.777-43.111-49.341-73.22-93.778-73.22h-42.281c-16.388-14.775-36.177-24.597-57.529-28.721v120.58h198.249z" fill="#d6e8fd"/><path d="m30.929 146.052h449.931v91.858h-449.931z" fill="#cf3086"/><path d="m255.895 146.052h224.965v91.858h-224.965z" fill="#9e1961"/><path d="m0 207.91h511.789v140.307h-511.789z" fill="#f75f79"/><path d="m255.895 207.91h255.894v140.307h-255.894z" fill="#cf3086"/><path d="m0 318.217v58.308c0 45.215 36.785 82 82 82h347.79c45.215 0 81.999-36.785 81.999-82v-58.308z" fill="#cf3086"/><path d="m255.895 318.217v140.307h173.895c45.215 0 81.999-36.785 81.999-82v-58.308h-255.894z" fill="#9e1961"/><ellipse cx="255.895" cy="333.217" fill="#edf5ff" rx="68.966" ry="68.966" transform="matrix(.383 -.924 .924 .383 -149.884 442.116)"/><path d="m255.895 264.251v137.932c38.028 0 68.966-30.938 68.966-68.966s-30.939-68.966-68.966-68.966z" fill="#d6e8fd"/></g></svg>