<svg height="512" viewBox="0 0 512 512" width="512" xmlns="http://www.w3.org/2000/svg"><g id="Flat"><path d="m208 128h96v80h-96z" fill="#35505d"/><path d="m192 104h128v48h-128z" fill="#58646f"/><path d="m256 24a24 24 0 0 1 24 24v56a0 0 0 0 1 0 0h-48a0 0 0 0 1 0 0v-56a24 24 0 0 1 24-24z" fill="#35505d"/><rect fill="#8d6539" height="312" rx="24" width="176" x="168" y="184"/><path d="m168 248h176v192h-176z" fill="#ffc11b"/><path d="m315.29 452.659-221.79 32.314a16.543 16.543 0 0 1 -18.666-13.44 16.543 16.543 0 0 1 12.811-19.1l219.148-47.012z" fill="#ccdce4"/><path d="m302.156 395.123h128v48h-128z" fill="#58646f" transform="matrix(.177 .984 -.984 .177 713.825 -15.458)"/><path d="m429.145 367.791a24 24 0 0 1 24 24v56a0 0 0 0 1 0 0h-48a0 0 0 0 1 0 0v-56a24 24 0 0 1 24-24z" fill="#35505d" transform="matrix(.177 .984 -.984 .177 754.508 -86.777)"/><path d="m351.034 470.614-31.494 5.666-16.998-94.483 31.494-5.666" fill="#35505d"/><g fill="#f79826"><path d="m288 344a32 32 0 0 1 -64 0c0-17.673 32-56 32-56s32 38.327 32 56z"/><path d="m304 272h16v16h-16z"/></g></g></svg>