<svg id="Capa_1" enable-background="new 0 0 511.861 511.861" height="512" viewBox="0 0 511.861 511.861" width="512" xmlns="http://www.w3.org/2000/svg"><g><path d="m152.814 212.494-8.476-12.375-74.252 50.845 8.474 12.371 8.474 12.37 74.253-50.844z" fill="#f3f5f9"/><path d="m74.927 236.602h89.992v14.993h-89.992z" fill="#e1e6f0" transform="matrix(.825 -.565 .565 .825 -116.967 110.501)"/><path d="m311.662 103.734-25.417-37.134-146.462 100.282c-20.519 14.013-25.79 42.034-11.721 62.56 0 .002.002.002.002.004 14.055 20.504 42.087 25.69 62.563 11.704l146.45-100.287z" fill="#f3f5f9"/><path d="m190.628 241.15 146.45-100.287-25.415-37.128-183.6 125.707c0 .002.002.002.002.004 14.054 20.504 42.086 25.689 62.563 11.704z" fill="#e1e6f0"/><path d="m285.93 209.861h150v90h-150z" fill="#ffdf40"/><path d="m360.93 209.861h75v90h-75z" fill="#ffbe40"/><path d="m465.93 269.861v182c0 32.999-27.001 60-60 60h-90c-32.999 0-60-27.001-60-60l30-31v-61l-30-30v-60z" fill="#f3f5f9"/><path d="m465.93 269.861v182c0 32.999-27.001 60-60 60h-45v-242z" fill="#e1e6f0"/><path d="m255.93 329.861h120v122h-120z" fill="#ffdf40"/><path d="m360.93 329.861h15v122h-15z" fill="#ffbe40"/><path d="m425.12 26.052c-18.691-27.275-56.074-34.248-83.423-15.601l-66.698 45.679 33.885 49.504 33.885 49.504 66.735-45.665c27.291-18.69 34.292-56.116 15.616-83.421z" fill="#515866"/><path d="m409.504 109.475c27.29-18.691 34.292-56.118 15.615-83.423l-116.235 79.583 33.885 49.504z" fill="#353d4d"/><path d="m326.089 93.856-50.823-74.249-24.756 16.933 50.83 74.26 50.831 74.261 24.755-16.934z" fill="#353d4d"/><path d="m376.926 168.127-50.837-74.271-24.749 16.944 50.831 74.261z" fill="#1e2533"/><path d="m103.279 306.335-12.349-17.871-12.349 17.871c-9.814 14.224-32.651 49.351-32.651 68.525 0 24.814 20.186 45 45 45s45-20.186 45-45c0-19.174-22.837-54.301-32.651-68.525z" fill="#ffdf40"/><path d="m135.93 374.861c0-19.175-22.837-54.302-32.651-68.525l-12.349-17.872v131.396c24.815.001 45-20.185 45-44.999z" fill="#ffbe40"/></g></svg>